# xmcd
#
# Track frame offsets: 
#        150
#        19422
#        35781
#        51421
#        63621
#        77370
#        95319
#        110818
#        127070
#        143152
#        159099
#        172683
#        192741
#        210953
#        236453
#
# Disc length: 3335 seconds
#
# Revision: 0
# Processed by: cddbd v1.5.2PL0 Copyright (c) Steve Scherf et al.
# Submitted via: ExactAudioCopy v0.99pb4
#
DISCID=cd0d050f
DTITLE=Johan Verminnen - Tussen Een Glimlach En Een Traan
DYEAR=2016
DGENRE=Chanson
TTITLE0=Tussen Een Glimlach En Een Traan
TTITLE1=Ouwe Maten
TTITLE2=Is Er Een Dokter?
TTITLE3=Mijn Gitaar Uit Spanje
TTITLE4=Mama Wat Doen Ze Me Aan
TTITLE5=Alle Dromen Zijn Van Ons
TTITLE6=Over Zeeën En Meren
TTITLE7=Lampedusa
TTITLE8=Bericht Uit Oostende
TTITLE9=Het Meisje Aan De Balie Heette Lente
TTITLE10=Jaja, Zo Ben Ik Dan
TTITLE11=Meer Dan Zestig
TTITLE12=Bootje Van Papier
TTITLE13=Alles Leeft
TTITLE14=Einde Seizoen
EXTD=
EXTT0=
EXTT1=
EXTT2=
EXTT3=
EXTT4=
EXTT5=
EXTT6=
EXTT7=
EXTT8=
EXTT9=
EXTT10=
EXTT11=
EXTT12=
EXTT13=
EXTT14=
PLAYORDER=
